<svg height="200" viewBox="0 0 1024 1024" width="200" xmlns="http://www.w3.org/2000/svg"><path d="m555.679573 0c25.62304 0 49.344853 17.501867 53.482667 42.765653a51.452587 51.452587 0 0 1 -46.980267 59.907414l-3.726506.128h-403.959467c-7.709867 0-12.772693 7.65952-10.331307 14.521173l.873814 1.85088 332.33152 575.61088c3.82976 6.6304 12.8512 7.222613 17.60512 1.79968l1.28512-1.79968 198.432426-343.665493c13.441707-23.258453 42.4576-34.824533 67.001174-23.773014a51.400533 51.400533 0 0 1 25.314986 69.211307l-1.798826 3.444053-248.086187 429.710507a58.28864 58.28864 0 0 1 -50.269867 29.041493c-19.275093 0-37.265067-9.637547-47.982933-25.391786l-2.338133-3.752107-428.786347-742.536533a58.210987 58.210987 0 0 1 0-58.030934 58.23744 58.23744 0 0 1 45.927253-28.862293l4.369067-.1792zm32.896 234.362027c20.97152 0 34.438827 21.691733 26.0608 40.221013l-1.36192 2.62144-92.95872 161.038507a28.578133 28.578133 0 0 1 -47.597226 2.852693l-1.875627-2.827093-92.95872-161.063254a28.578133 28.578133 0 0 1 21.794133-42.688l2.929494-.154453h185.967786zm327.01184-234.362027c20.714667 0 39.93856 11.127467 50.295467 29.041493 9.509547 16.4992 10.228907 36.75136 2.158933 53.84192l-2.210133 4.189867-101.7216 176.226987a51.323733 51.323733 0 0 1 -76.433067 14.597973c-19.300693-15.163733-23.64416-42.5856-13.184-64.585387l2.133334-4.06016 51.99104-90.079573a10.922667 10.922667 0 0 0 -7.401814-16.192l-2.05568-.1792h-90.41408c-25.59744 0-49.344853-17.501867-53.457066-42.765653a51.478187 51.478187 0 0 1 47.03232-59.882667l3.675306-.1536h189.56544z"/></svg>