<svg fill="none" height="50" viewBox="0 0 50 50" width="50" xmlns="http://www.w3.org/2000/svg"><path d="m48.8354 10.0479c-.5122-.25591-.7329.2319-1.0322.4799-.1025.0801-.1889.1841-.2759.2798-.748.8164-1.6225 1.3521-2.7651 1.2881-1.6699-.0957-3.0962.4399-4.3564 1.7441-.2681-1.6079-1.1582-2.5678-2.5132-3.184-.709-.3199-1.4258-.6402-1.9224-1.33598-.3467-.49609-.4409-1.04785-.6142-1.59228-.1104-.32764-.2207-.66358-.5909-.71973-.4018-.06396-.5595.27979-.7172.56787-.6299 1.17627-.8746 2.47222-.8506 3.78422.0551 2.9521 1.2763 5.3042 3.7026 6.976.2759.1919.3467.3838.2598.6641-.1651.5757-.3623 1.1357-.5357 1.7119-.1103.3682-.2754.4478-.6616.2881-1.3315-.5679-2.4814-1.4082-3.498-2.4243-1.7251-1.7036-3.2852-3.584-5.231-5.0557-.457-.3442-.9141-.664-1.3867-.9682-1.9849-1.9678.2602-3.58403.7803-3.77592.5434-.2002.1889-.88818-1.5679-.87988-1.7569.00781-3.3638.60791-5.4121 1.40771-.2993.12012-.6148.20801-.9375.28027-1.8594-.36035-3.7896-.44043-5.8062-.208-3.79734.43164-6.83055 2.26362-9.06004 5.39212-2.67871 3.7597-3.30908 8.0317-2.53662 12.4878.81104 4.6962 3.15918 8.5839 6.76709 11.624 3.74217 3.1523 8.05177 4.6963 12.96727 4.4004 2.9859-.1763 6.3106-.584 10.0606-3.8242.9453.4799 1.938.6718 3.5844.8159 1.2686.1201 2.4898-.064 3.4351-.2642 1.481-.3198 1.3784-1.7197.8428-1.9756-4.3409-2.0644-3.3877-1.2241-4.2539-1.9043 2.2055-2.664 5.5302-5.4321 6.83-14.3999.1026-.7119.0157-1.1601 0-1.7363-.0078-.3521.0708-.4878.4649-.5278 1.0874-.128 2.143-.4322 3.1118-.9761 2.8125-1.5679 3.9473-4.144 4.2148-7.2319.0396-.4722-.0078-.96-.4961-1.208zm-24.5092 27.7919c-4.2066-3.3759-6.2471-4.4877-7.0904-4.4399-.7876.0483-.646.9683-.4726 1.5679.1811.5923.418 1.0005.7485 1.52.2285.3442.3862.8564-.2285 1.2402-1.355.856-3.7104-.2881-3.8208-.3442-2.7417-1.648-5.03418-3.8237-6.64892-6.7998-1.56006-2.8643-2.46582-5.9361-2.61573-9.2163-.03955-.792.18897-1.0718.96094-1.2158 1.0166-.1919 2.06445-.232 3.08057-.0801 4.29344.6401 7.94924 2.6001 11.01364 5.7041 1.7491 1.768 3.0723 3.8799 4.4356 5.9443 1.4492 2.1919 3.0093 4.2798 4.9946 5.9917.7012.6001 1.2603 1.0562 1.7959 1.3921-1.6147.1841-4.3091.2241-6.1528-1.2642zm2.0171-13.2397c0-.3521.2758-.6323.6225-.6323.0786 0 .1494.0161.2124.04.0869.0322.1656.0801.2285.1524.1104.1118.1734.2719.1734.4399 0 .352-.2759.6318-.6226.6318s-.6142-.2798-.6142-.6318zm6.2631 3.2798c-.4018.168-.8037.312-1.1899.3281-.5986.0317-1.2524-.2158-1.6069-.52-.5513-.4722-.9453-.7359-1.1109-1.5601-.0708-.352-.0312-.896.0318-1.208.1416-.6719-.0161-1.104-.481-1.4961-.3779-.3198-.8584-.4077-1.3862-.4077-.1973 0-.3784-.0884-.5122-.1601-.2207-.1119-.4019-.3921-.2285-.7359.0551-.1123.3232-.3843.3862-.4321.7168-.416 1.5439-.2803 2.3081.0317.709.2964 1.2446.8404 2.0171 1.6084.7876.9278.9292 1.1836 1.3784 1.8799.3545.544.6777 1.104.898 1.7441.1342.4-.0391.7281-.504.9278z" fill="#4d6bfe"/></svg>