<svg height="200" viewBox="0 0 1035 1024" width="200" xmlns="http://www.w3.org/2000/svg"><g fill="#fff"><path d="m11.249938 506.247191a494.997253 494.997253 0 1 0 989.994506 0 494.997253 494.997253 0 1 0 -989.994506 0z"/><path d="m134.999251 506.247191a371.24794 371.24794 0 1 0 742.49588 0 371.24794 371.24794 0 1 0 -742.49588 0z"/><path d="m258.748564 506.247191a247.498627 247.498627 0 1 0 494.997254 0 247.498627 247.498627 0 1 0 -494.997254 0z"/><path d="m382.497878 506.247191a123.749313 123.749313 0 1 0 247.498626 0 123.749313 123.749313 0 1 0 -247.498626 0z"/><path d="m506.247191 11.249938v989.994506m348.748065-146.249188-697.49613-697.49613m697.49613 0-697.49613 697.49613m843.745318-348.748065h-989.994506"/></g><path d="m506.247191 506.247191h101.249438a101.249438 101.249438 0 0 0 0-28.124844z" fill="#44c" opacity=".8"/><path d="m506.247191 506.247191 191.248939-241.873658a309.373283 309.373283 0 0 0 -84.374532-44.99975z" fill="#bc3" opacity=".8"/><path d="m506.247191 506.247191-89.999501-404.997753a416.24769 416.24769 0 0 0 -174.374032 84.374532z" fill="#d93" opacity=".8"/><path d="m506.247191 506.247191-326.24819-157.499126a365.622971 365.622971 0 0 0 -28.124844 219.373783z" fill="#db3" opacity=".8"/><path d="m506.247191 506.247191-185.62397 89.999501a208.123845 208.123845 0 0 0 11.249938 28.124844z" fill="#3bb" opacity=".8"/><path d="m506.247191 506.247191-56.249688 253.123596a258.748564 258.748564 0 0 0 101.249438 0z" fill="#3c9" opacity=".8"/><path d="m506.247191 506.247191 258.748564 326.24819a416.24769 416.24769 0 0 0 67.499626-67.499626z" fill="#d73" opacity=".8"/></svg>