<svg t="1745850555173" class="icon" viewBox="0 0 1035 1024" version="1.1" xmlns="http://www.w3.org/2000/svg" p-id="42791" width="200" height="200"><path d="M506.247191 506.247191m-494.997253 0a494.997253 494.997253 0 1 0 989.994506 0 494.997253 494.997253 0 1 0-989.994506 0Z" fill="#FFFFFF" p-id="42792"></path><path d="M506.247191 506.247191m-371.24794 0a371.24794 371.24794 0 1 0 742.49588 0 371.24794 371.24794 0 1 0-742.49588 0Z" fill="#FFFFFF" p-id="42793"></path><path d="M506.247191 506.247191m-247.498627 0a247.498627 247.498627 0 1 0 494.997254 0 247.498627 247.498627 0 1 0-494.997254 0Z" fill="#FFFFFF" p-id="42794"></path><path d="M506.247191 506.247191m-123.749313 0a123.749313 123.749313 0 1 0 247.498626 0 123.749313 123.749313 0 1 0-247.498626 0Z" fill="#FFFFFF" p-id="42795"></path><path d="M506.247191 11.249938v989.994506m348.748065-146.249188L157.499126 157.499126m697.49613 0L157.499126 854.995256m843.745318-348.748065H11.249938" fill="#FFFFFF" p-id="42796"></path><path d="M506.247191 506.247191h101.249438a101.249438 101.249438 0 0 0 0-28.124844z" fill="#4444CC" opacity=".8" p-id="42797"></path><path d="M506.247191 506.247191l191.248939-241.873658a309.373283 309.373283 0 0 0-84.374532-44.99975z" fill="#BBCC33" opacity=".8" p-id="42798"></path><path d="M506.247191 506.247191L416.24769 101.249438a416.24769 416.24769 0 0 0-174.374032 84.374532z" fill="#DD9933" opacity=".8" p-id="42799"></path><path d="M506.247191 506.247191L179.999001 348.748065a365.622971 365.622971 0 0 0-28.124844 219.373783z" fill="#DDBB33" opacity=".8" p-id="42800"></path><path d="M506.247191 506.247191l-185.62397 89.999501a208.123845 208.123845 0 0 0 11.249938 28.124844z" fill="#33BBBB" opacity=".8" p-id="42801"></path><path d="M506.247191 506.247191l-56.249688 253.123596a258.748564 258.748564 0 0 0 101.249438 0z" fill="#33CC99" opacity=".8" p-id="42802"></path><path d="M506.247191 506.247191l258.748564 326.24819a416.24769 416.24769 0 0 0 67.499626-67.499626z" fill="#DD7733" opacity=".8" p-id="42803"></path></svg>