<svg height="200" viewBox="0 0 1024 1024" width="200" xmlns="http://www.w3.org/2000/svg"><path d="m749.830037 697.202637.224551 226.497669-200.992354 100.299694v-226.400363zm241.21328-121.052v227.287341l-171.4264 85.554142-.123503-226.250661zm-241.516425-182.111311.224552 224.121164-200.692952 99.727088v-224.196015zm241.516425-120.067717v222.713975l-171.598556 87.234536-.149701-224.570267zm-472.538807-26.347382 179.390495 90.550414-186.119557 93.469585-176.003508-88.398462zm-249.52543-125.950967 171.1008 86.36627-183.151734 95.59534-175.726561-88.248761zm489.110711 1.309884 184.293204 92.402965-164.820841 82.784673-179.761005-90.673918zm-245.217782-122.983144 165.906173 83.177638-159.079806 84.932883-170.958584-86.224054z" fill="#4dabcf"/><path d="m478.107685 493.691563-135.382132-68.061576v294.184992s-165.558119-352.272737-180.898733-383.915793c-1.976054-4.083096-10.116048-8.562899-12.196891-9.648232-29.685716-15.587621-116.673246-59.652121-116.673246-59.652121v519.743286l120.337178 64.326536v-271.669956s163.802874 314.765142 165.460814 318.204523c1.657939 3.443124 18.113825 36.616874 35.677499 48.267357 23.402015 15.490315 123.701709 75.804862 123.701709 75.804862z" fill="#4d77cf"/></svg>