<svg t="1745850611649" class="icon" viewBox="0 0 1024 1024" version="1.1" xmlns="http://www.w3.org/2000/svg" p-id="44818" width="200" height="200"><path d="M512.021952 49.920001a461.86058 461.86058 0 0 0-461.86058 461.86058 461.86058 461.86058 0 0 0 55.427658 219.220118c2.653257 0.619886 5.198629 1.631086 7.674515 2.770286 8.96 4.123429 17.422629 10.080914 22.443886 18.569143 2.510629 4.242286 4.101486 9.069714 4.302629 13.995886 0.201143 4.880457-1.022171 9.8432-3.669943 13.946514a461.86058 461.86058 0 0 0 375.680006 193.356804 461.86058 461.86058 0 0 0 461.86058-461.856923A461.86058 461.86058 0 0 0 512.021952 49.920001z" fill="#0054A6" p-id="44819"></path><path d="M939.09396 338.15772l23.570286-10.962286 15.930514-43.538286 16.713143 5.858743-14.356114 38.928458 39.786058 13.714286-5.999543 16.303543-44.428801-15.517258-24.4992 11.267658" fill="#0054A6" p-id="44820"></path><path d="M683.721155 572.406867c-31.813486-43.514515-94.677945-68.81463-148.604345-80.691201-53.926401-11.8784-86.74743-21.065143-112.961831-35.249372-29.920915-16.190172-53.443658-63.930515-44.256915-105.322059 14.416457-64.958173 72.429716-111.700116 138.67886-102.449373 33.088001 4.679314 61.145601 22.197029 79.645258 46.857143l73.356801 96.374859c41.929144 53.997715 89.069716 70.070858 140.357489 44.57143l24.954514-11.794286c2.071771-0.963657 4.584229-2.907429 8.650972-1.614629 4.066743 1.2928 6.061714 4.801829 8.343771 8.905143 2.282057 4.103314 4.693943 7.8848 8.987429 8.917943 4.293486 1.033143 10.272914 0.323657 13.0688-2.340571 19.009829-18.121143 57.568915-55.021715 57.568916-55.021716 10.428343-8.927086 7.356343-17.122743 7.356343-17.122743l-14.357943-32.696686s-3.927771-7.839086-17.499429-6.036115l-79.857373 7.339886a13.2736 13.2736 0 0 0-10.570972 8.464458 12.576915 12.576915 0 0 0-0.356571 8.232228l2.858057 9.195886c0.572343 1.910857 0.572343 4.053943-0.213943 6.016-0.928914 2.430171-2.784914 4.145372-4.999314 5.056l-22.571886 9.554286c-26.015086 8.824686-50.499658 4.999314-68.428802-16.928914l-20.500114-27.232915-58.35703-77.447316c-27.713829-36.750629-69.500344-62.96503-118.857145-69.856915-98.821487-13.838629-190.537146 54.590172-204.893261 152.839317-7.250286 49.517715-0.438857 91.397487 36.973715 134.180574 37.408915 42.783086 110.164116 59.081144 173.189489 73.526858 6.743772 1.6 25.7152 6.286629 36.942629 10.3424 10.378972 3.757714 34.285715 12.571429 53.714287 28.470858 23.213715 23.599543 35.499886 57.314744 30.286629 92.672001-8.786286 60.286173-65.071544 102.28663-125.714288 93.785602-30.374401-4.214857-56.018287-20.315429-73.00023-42.858058l-70.070858-93.001144c-14.286629-18.954972-35.894858-32.497372-61.42903-36.141715-25.499429-3.5712-50.177829 3.499886-69.302858 17.828572l-146.364346 109.231544c6.202514 17.647543 14.0544 35.187201 30.79863 49.442744l150.901031-113.142859c6.910172-4.714057 15.482515-6.857143 24.374857-5.642972 9.464686 1.3568 17.517715 6.326857 22.802287 13.357715l74.126629 99.615087c26.106515 32.029258 64.036573 54.714515 108.447088 60.957259 93.42903 13.070629 180.143546-51.642515 193.715204-144.572346 6.282972-43.245715-4.288-85.001144-26.931201-118.571888" fill="#FFFFFF" p-id="44821"></path></svg>