<svg height="200" viewBox="0 0 1024 1024" width="200" xmlns="http://www.w3.org/2000/svg"><path d="m826.709333 682.154667-328.874666 189.866666-328.917334-189.866666v-379.733334l328.917334-189.909333 328.874666 189.866667z" fill="#fff" fill-opacity=".785"/><path d="m524.202667 84.48c-8.96 0-17.493333 2.517333-24.32 7.637333l-337.066667 189.44c-13.653333 7.253333-22.613333 21.333333-22.613333 37.546667v384c0 16.213333 8.96 30.336 22.613333 37.589333l337.066667 189.44c6.826667 5.12 15.36 7.68 24.32 7.68s17.493333-2.56 24.32-7.68l337.066666-189.44c13.653333-7.253333 22.613333-21.333333 22.613334-37.546666v-384c0-16.213333-8.96-30.378667-22.613334-37.632l-337.066666-189.44a40.32 40.32 0 0 0 -24.32-7.637334zm0 91.733333 298.666666 168.106667v89.728h-.682666v220.885333h.682666v23.04l-298.666666 168.064-298.666667-168.106666v-333.610667zm0 88.746667-209.066667 120.746667 209.066667 120.746666 209.066666-120.746666zm-213.333334 216.746667v152.746666l170.666667 98.517334v-152.746667l-170.666667-98.56zm426.666667 0-170.666667 98.474666v152.746667l170.666667-98.474667z" fill="#8ed6fb"/><path d="m524.202667 264.96-209.066667 120.746667 209.066667 120.746666 209.066666-120.746666zm-213.333334 216.746667v152.746666l170.666667 98.517334v-152.746667l-170.666667-98.56zm426.666667 0-170.666667 98.474666v152.746667l170.666667-98.474667z" fill="#1c78c0"/></svg>