<svg viewBox="0 0 100 100" xmlns="http://www.w3.org/2000/svg"><g fill="#333"><path d="m0 0h10v10h-10z"/><path d="m20 0h10v10h-10z"/><path d="m40 0h10v10h-10z"/><path d="m60 0h10v10h-10z"/><path d="m80 0h10v10h-10z"/><path d="m10 10h10v10h-10z"/><path d="m30 10h10v10h-10z"/><path d="m50 10h10v10h-10z"/><path d="m70 10h10v10h-10z"/><path d="m90 10h10v10h-10z"/><path d="m0 20h10v10h-10z"/><path d="m20 20h10v10h-10z"/><path d="m40 20h10v10h-10z"/><path d="m60 20h10v10h-10z"/><path d="m80 20h10v10h-10z"/><path d="m10 30h10v10h-10z"/><path d="m30 30h10v10h-10z"/><path d="m50 30h10v10h-10z"/><path d="m70 30h10v10h-10z"/><path d="m90 30h10v10h-10z"/><path d="m0 40h10v10h-10z"/><path d="m20 40h10v10h-10z"/><path d="m40 40h10v10h-10z"/><path d="m60 40h10v10h-10z"/><path d="m80 40h10v10h-10z"/><path d="m10 50h10v10h-10z"/><path d="m30 50h10v10h-10z"/><path d="m50 50h10v10h-10z"/><path d="m70 50h10v10h-10z"/><path d="m90 50h10v10h-10z"/><path d="m0 60h10v10h-10z"/><path d="m20 60h10v10h-10z"/><path d="m40 60h10v10h-10z"/><path d="m60 60h10v10h-10z"/><path d="m80 60h10v10h-10z"/><path d="m10 70h10v10h-10z"/><path d="m30 70h10v10h-10z"/><path d="m50 70h10v10h-10z"/><path d="m70 70h10v10h-10z"/><path d="m90 70h10v10h-10z"/><path d="m0 80h10v10h-10z"/><path d="m20 80h10v10h-10z"/><path d="m40 80h10v10h-10z"/><path d="m60 80h10v10h-10z"/><path d="m80 80h10v10h-10z"/><path d="m10 90h10v10h-10z"/><path d="m30 90h10v10h-10z"/><path d="m50 90h10v10h-10z"/><path d="m70 90h10v10h-10z"/><path d="m90 90h10v10h-10z"/></g></svg>