<?xml version="1.0" standalone="no"?><!DOCTYPE svg PUBLIC "-//W3C//DTD SVG 1.1//EN"
    "http://www.w3.org/Graphics/SVG/1.1/DTD/svg11.dtd">
<svg t="1745928507031" class="icon" viewBox="0 0 1024 1024" version="1.1" xmlns="http://www.w3.org/2000/svg"
     p-id="16329" xmlns:xlink="http://www.w3.org/1999/xlink" width="200" height="200">
  <path
      d="M419.714 208.513c0 31.993 17.05 61.523 44.825 77.608 27.685 15.996 61.875 15.996 89.56 0s44.825-45.529 44.825-77.608-17.05-61.523-44.825-77.607c-27.685-15.997-61.875-15.997-89.56 0-27.773 15.995-44.825 45.615-44.825 77.607M121.062 699.822c0 31.992 17.05 61.523 44.825 77.607 27.685 15.997 61.875 15.997 89.56 0s44.824-45.527 44.824-77.607c0-31.992-17.05-61.523-44.825-77.608s-61.875-15.996-89.56 0-44.824 45.615-44.824 77.608z"
      fill="#49faff" p-id="16330"></path>
  <path
      d="M765.916 285.506c-27.686-27.685-59.064-50.361-92.99-67.5-1.23 20.919-6.328 40.87-14.677 58.974 90.877 51.152 153.017 147.833 155.214 259.014 20.654 0 40.519 3.866 58.712 10.898 0-1.582 0.088-3.164 0.088-4.746 0-96.943-37.793-188.174-106.347-256.64z m-86.483 508.71c-48.604 32.872-107.139 52.12-170.156 52.12-61.435 0-118.566-18.28-166.465-49.658-11.953 16.348-26.895 30.323-43.945 41.31 60.998 43.593 133.857 67.147 210.41 67.147 77.608 0 151.436-24.17 212.96-68.994-16.7-11.25-31.201-25.49-42.803-41.924z m-333.81-576.298c-33.926 17.138-65.303 39.815-92.988 67.5-68.555 68.554-106.348 159.697-106.348 256.64 0 2.374 0 4.659 0.088 6.944 18.106-7.735 37.881-12.305 58.712-13.008 2.197-111.182 64.247-207.863 155.215-259.19-8.349-18.019-13.448-37.97-14.679-58.887z"
      fill="#49faff" p-id="16331"></path>
  <path
      d="M723.817 699.822c0 31.992 17.05 61.523 44.824 77.607 27.685 15.997 61.875 15.997 89.56 0s44.824-45.527 44.824-77.607c0-31.992-17.05-61.523-44.824-77.608-27.686-15.996-61.876-15.996-89.56 0-27.773 16.085-44.824 45.615-44.824 77.608z"
      fill="#49faff" p-id="16332"></path>
</svg>