<svg height="200" viewBox="0 0 1129 1024" width="200" xmlns="http://www.w3.org/2000/svg"><g fill="#20b0e3"><path d="m234.909 9.656a80.468 80.468 0 0 1 68.398 0 167.374 167.374 0 0 1 41.843 30.578l160.937 140.82h115.07l160.936-140.82a168.983 168.983 0 0 1 41.843-30.578 80.468 80.468 0 0 1 107.024 66.789 80.468 80.468 0 0 1 -17.703 53.914 449.818 449.818 0 0 1 -35.406 32.187 232.553 232.553 0 0 1 -22.531 18.508h100.585a170.593 170.593 0 0 1 118.289 53.109 171.397 171.397 0 0 1 53.914 118.288v462.693a325.897 325.897 0 0 1 -4.024 70.007 178.64 178.64 0 0 1 -80.468 112.656 173.007 173.007 0 0 1 -92.539 25.75h-738.7a341.186 341.186 0 0 1 -72.421-4.024 177.835 177.835 0 0 1 -111.046-80.468 172.202 172.202 0 0 1 -27.36-92.539v-457.864a360.498 360.498 0 0 1 0-66.789 177.03 177.03 0 0 1 160.937-143.233h105.414c-16.899-12.07-31.383-26.555-46.672-39.43a80.468 80.468 0 0 1 -25.75-65.984 80.468 80.468 0 0 1 39.43-63.57m-18.509 312.217a80.468 80.468 0 0 0 -63.57 57.937 108.632 108.632 0 0 0 0 30.578v380.615a80.468 80.468 0 0 0 55.523 80.469 106.218 106.218 0 0 0 34.601 5.632h654.208a80.468 80.468 0 0 0 76.444-47.476 112.656 112.656 0 0 0 8.047-53.109v-354.06a135.187 135.187 0 0 0 0-38.625 80.468 80.468 0 0 0 -52.304-54.719 129.554 129.554 0 0 0 -49.89-7.242h-625.239a268.764 268.764 0 0 0 -37.82 0zm0 0"/><path d="m348.369 447.404a80.468 80.468 0 0 1 55.523 18.507 80.468 80.468 0 0 1 28.164 59.547v80.468a80.468 80.468 0 0 1 -16.094 51.5 80.468 80.468 0 0 1 -131.968-9.656 104.609 104.609 0 0 1 -10.46-54.719v-80.468a80.468 80.468 0 0 1 70.007-67.593zm416.02 0a80.468 80.468 0 0 1 86.102 75.64v80.468a94.148 94.148 0 0 1 -12.07 53.11 80.468 80.468 0 0 1 -132.773 0 95.757 95.757 0 0 1 -12.875-57.133v-80.469a80.468 80.468 0 0 1 70.007-70.812zm0 0"/></g></svg>