<svg height="200" viewBox="0 0 1024 1024" width="200" xmlns="http://www.w3.org/2000/svg"><path d="m189.711915 1023.95154h678.735695c88.01196-21.78399 141.569936-72.445967 155.55193-156.28993v-712.23568c-19.079991-75.009966-61.287972-133.64394-155.55193-155.42593l-710.947681.996c-89.29396 17.947991-137.551938 73.289967-157.499929 154.42993v712.23568c20.307991 107.711952 112.16395 158.127929 189.711915 156.28993zm422.57981-177.57392h-353.311841v-661.197703s360.005838 1.539999 376.095831 4.257998c95.895957 13.027994 138.305938 66.44797 145.279934 125.665943 11.609995 98.615956-30.825986 146.433934-85.633961 172.233923 191.639914 66.53597 147.595934 345.247845-82.431963 359.039839zm-206.279907-392.551824 82.579963-.68c77.455965-.86 83.257963-1.04 95.721957-4.437998 38.979982-10.597995 55.883975-32.969985 55.883974-73.953966 0-31.429986-11.103995-51.763977-35.215984-63.719972-21.34799-10.595995-44.46398-12.815994-135.199939-12.997994h-63.771971v155.78993zm0 98.589956v181.375918l90.237959-.679999c101.389954-.678 104.787953-1.04 129.761942-13.131994 28.735987-13.993994 41.515981-36.909983 41.515981-74.315967 0-48.139978-19.125991-74.815966-63.225971-88.12996-20.543991-6.889997-114.689948-3.897998-198.291911-5.117998z" fill="#7e57c2"/></svg>