<svg height="200" viewBox="0 0 1024 1024" width="200" xmlns="http://www.w3.org/2000/svg"><path d="m366.635375 495.627875c8.93025-1.488375 17.8605-2.480625 26.79075-2.480625h-7.441875 241.612875c10.418625 0 20.341125-1.488375 30.263625-3.969 44.65125-12.403125 77.3955-52.093125 77.3955-101.2095v-202.915125c0-57.5505-49.116375-101.2095-107.659125-110.635875-37.209375-5.9535-91.287-8.93025-128.00025-8.93025s-71.938125 3.472875-103.194 8.93025c-91.287 15.876-107.659125 49.116375-107.659125 110.635875v66.48075h223.25625v37.209375h-295.6905c-82.852875 0-150.325875 99.225-150.822 221.27175v1.9845c0 22.325625 1.9845 43.659 6.449625 63.504 18.356625 92.27925 75.907125 159.75225 144.372375 159.75225h35.224875v-106.666875c0-62.51175 46.63575-120.558375 115.101-132.9615zm23.814-283.7835c-22.325625 0-40.68225-18.356625-40.186125-40.68225 0-22.325625 17.8605-40.68225 40.186125-40.68225s40.68225 18.356625 40.68225 40.68225c-.496125 22.82175-18.356625 40.68225-40.68225 40.68225z" fill="#0075aa"/><path d="m949.086125 434.108375c-21.333375-84.837375-76.40325-145.364625-141.395625-145.364625h-35.224875v94.759875c0 78.883875-51.597 135.93825-115.101 145.86075-6.449625.99225-12.89925 1.488375-19.348875 1.488375h-241.612875c-10.418625 0-20.341125 1.488375-30.263625 3.969-44.65125 11.907-77.3955 48.62025-77.3955 96.744375v202.915125c0 57.5505 58.046625 91.783125 115.101 108.15525 67.969125 19.845 142.387875 23.317875 224.2485 0 54.077625-15.379875 107.163-46.63575 107.163-108.15525v-61.5195h-223.25625v-37.7055h295.6905c58.54275 0 109.643625-49.6125 134.449875-122.04675 10.418625-30.263625 16.372125-64.49625 16.372125-101.2095 0-27.286875-3.472875-53.5815-9.426375-77.891625zm-316.52775 372.589875c22.325625 0 40.186125 18.356625 40.186125 40.68225s-18.356625 40.68225-40.186125 40.68225c-22.325625 0-40.68225-18.356625-40.68225-40.68225.496125-22.325625 18.356625-40.68225 40.68225-40.68225z" fill="#ffd400"/></svg>