<svg height="200" viewBox="0 0 1829 1024" width="200" xmlns="http://www.w3.org/2000/svg"><path d="m242.712452 365.989957c-65.456826-3.144853-129.158385 23.91551-176.111773 74.891385-105.242874 117.529742-83.375175 333.061882 49.147471 481.235657 132.522646 148.027503 385.646751 105.169738 430.552328 54.852089 36.494923-40.444273 83.448311-333.061882-49.074335-481.162522-74.598841-83.155766-168.213072-127.403118-254.513691-129.816609z" fill="#3599cd"/><path d="m1566.695599 116.595794c-80.157186-80.669139-188.764321-118.69992-306.806016-116.505837-150.294723 2.925445-313.168858 72.039076-442.985468 202.587048-230.305636 231.768358-163.751768 674.826962-85.496122 753.521425 63.409014 63.628423 519.266439 145.83342 749.425803-86.008075 15.797402-16.309354 31.08285-33.276934 45.929482-50.902738a706.275493 706.275493 0 0 0 104.877194-170.187747c83.448311-192.786808 64.944873-401.371017-64.871737-532.504076z" fill="#f89939"/><path d="m1767.015426 761.217539c-8.556926 0-12.798821-5.119528-12.79882-15.06604 2.706036-17.040716 7.898701-33.642614 15.358585-49.293744 14.846632-36.787467 22.379652-63.262742 22.379652-79.49896a34.66652 34.66652 0 0 0 -8.849471-24.061783 29.108175 29.108175 0 0 0 -22.160243-9.653968 81.034819 81.034819 0 0 0 -44.539896 17.552669 499.373415 499.373415 0 0 0 -67.724046 63.628422c6.728523-27.791725 15.504857-55.071497 26.329003-81.619907l-63.555287 11.336098c-12.871957 26.18273-23.403558 53.389366-31.302258 81.400499a304.099979 304.099979 0 0 0 -7.313612 36.202379 577.190245 577.190245 0 0 1 -38.396462 34.081431 30.351489 30.351489 0 0 1 -17.991485 6.143434 16.601899 16.601899 0 0 1 -13.676454-6.21657 26.109594 26.109594 0 0 1 -5.119529-16.821307c.292544-8.776334 1.755267-17.552668 4.53444-25.890186 2.925445-9.873376 9.434559-28.303678 19.527343-55.437178l24.134919-64.213511h-5.777753l-17.845213.731361c-21.648291 39.493504-46.807116 60.776114-75.54961 63.701559a134.570457 134.570457 0 0 0 11.774915-45.344394 17.113852 17.113852 0 0 0 -4.90012-14.992904 18.576574 18.576574 0 0 0 -15.358585-5.119528 42.053268 42.053268 0 0 0 -37.518828 21.940835 79.572097 79.572097 0 0 0 -13.676455 41.248771 30.71717 30.71717 0 0 0 22.379653 28.376814c-9.288287 13.164501-19.60048 25.670777-30.71717 37.372556-14.773496 14.334679-26.18273 24.86628-34.373976 31.887348a35.836698 35.836698 0 0 1 -22.452788 10.385329c-10.604737 0-15.797402-7.16734-15.797401-21.575155 2.6329-25.963322 8.630062-51.414691 17.69894-75.988427l23.54983-73.574935h-14.627223l-53.828183 29.40072a46.075754 46.075754 0 0 0 -45.563802-28.669359c-21.28261 1.462722-41.687587 8.776334-58.874575 20.990066a173.259464 173.259464 0 0 0 -54.998361 55.290905c-10.970418 16.528763-18.137757 35.105337-21.136338 54.559545a267.458784 267.458784 0 0 1 -45.124985 37.591964 64.798601 64.798601 0 0 1 -32.691845 8.849471c-29.327583 0-47.09966-16.309354-54.413272-48.781791 76.280971-21.648291 114.458025-49.73256 114.458025-84.399081a38.689007 38.689007 0 0 0 -14.627223-31.521666 58.655167 58.655167 0 0 0 -38.762143-12.140596c-30.936578 0-58.874575 14.261543-84.764761 43.15031a141.225844 141.225844 0 0 0 -37.811373 86.373755c-14.480951 14.480951-30.278353 27.791725-47.09966 39.639776a57.046172 57.046172 0 0 1 -29.985809 9.727104 25.378233 25.378233 0 0 1 -22.087107-12.725685 63.335878 63.335878 0 0 1 -8.337518-34.739656c0-6.435978.731361-18.357166 2.120948-35.836698a443.643693 443.643693 0 0 0 76.427243-102.171157c16.089946-30.71717 24.427463-64.725465 24.5006-99.09944a74.452568 74.452568 0 0 0 -4.753848-28.888767c-3.291125-7.021067-7.16734-10.531601-11.701779-10.531601a16.675035 16.675035 0 0 0 -4.753848 1.023906l-66.11505 23.622966c-23.476694 43.589126-42.784629 89.226064-57.558125 136.252588a426.164161 426.164161 0 0 0 -23.54983 126.452349c-1.462722 20.039296 4.388167 39.859184 16.38249 56.314811a55.58345 55.58345 0 0 0 44.83244 20.770657 105.31601 105.31601 0 0 0 50.902739-14.846632c22.306516-13.310774 43.15031-28.888767 62.092564-46.368299a72.91671 72.91671 0 0 0 20.112432 39.639776c14.992904 14.70036 35.763562 22.672197 57.119309 21.794564 20.478113.219408 40.517409-4.90012 58.070078-14.846632a313.022586 313.022586 0 0 0 57.046172-44.174216c1.462722 13.895862 6.655387 27.060364 15.139176 38.396462a47.538477 47.538477 0 0 0 39.054687 20.624386c16.675035-.438817 32.691845-6.362842 45.344394-16.894444 18.430302-15.504857 34.593384-33.35007 48.050429-53.023685-1.535858 46.660843 11.701779 69.918129 38.762143 69.918129a64.06724 64.06724 0 0 0 34.373975-11.336099c21.063202-15.139176 40.956226-31.741075 59.605937-49.659424 20.770658-19.015391 38.689007-40.809954 53.096822-64.652328 14.627224-2.340356 28.888767-6.801659 42.19954-13.310774-18.430302 25.158825-31.448531 53.608775-38.396462 83.667719a70.942035 70.942035 0 0 0 -.95077 11.336099 47.904157 47.904157 0 0 0 10.970418 32.033619 33.862023 33.862023 0 0 0 26.694683 12.945093c23.54983 0 56.095403-19.96616 98.514351-59.605936v9.215151c0 10.970418.877633 27.791725 2.779173 50.390785l57.631261-13.091365c0-15.212313 0-26.987228.731361-35.836698.95077-13.164501 2.706036-26.18273 5.119528-39.200959a51.634099 51.634099 0 0 1 11.774915-23.842375l14.627224-16.309354a381.039176 381.039176 0 0 1 29.693264-29.985808c4.022486-3.58367 8.264381-6.874795 12.725684-9.873376a20.624385 20.624385 0 0 1 9.653968-3.510534c4.241895 0 6.435978 2.6329 6.435978 8.044973-2.194084 12.945093-6.143434 25.597641-11.701778 37.591965-15.212313 36.787467-23.622966 64.140376-23.622967 82.058724a45.78321 45.78321 0 0 0 10.75101 31.667939c7.16734 7.606156 17.479532 11.774915 28.157405 11.409235 28.669358 0 62.970198-20.478113 103.048791-61.214931v-28.815631c-28.303678 31.302259-48.781791 47.538477-61.43434 47.538477zm-924.952486-247.200079c11.774915-30.71717 21.721427-46.148891 28.084269-46.148891 2.925445 0 5.412073 1.901539 7.313612 5.631481a32.326164 32.326164 0 0 1 2.779173 14.919768 185.034379 185.034379 0 0 1 -20.478113 75.622747 300.589446 300.589446 0 0 1 -53.681911 79.425824 865.931639 865.931639 0 0 1 35.98297-129.450929zm137.71531 115.555067c10.385329-16.821307 21.355747-25.158825 32.764981-25.158825s18.28403 7.971837 18.28403 24.134919c0 32.253028-22.23338 54.486408-66.70014 66.553867a122.137317 122.137317 0 0 1 15.651129-65.456825zm257.292864 83.08263c-15.358585 28.44995-31.741075 42.638357-49.147471 42.638357a21.355747 21.355747 0 0 1 -17.406396-8.264382 33.203798 33.203798 0 0 1 -6.947932-22.013971 167.481711 167.481711 0 0 1 23.54983-78.548191c15.651129-28.376814 32.179892-42.565221 49.440016-42.565221a21.794563 21.794563 0 0 1 17.406396 7.825565 34.520248 34.520248 0 0 1 6.509115 21.940835c-1.097042 27.791725-9.142015 54.852089-23.403558 78.987008z"/><path d="m1276.784026 467.649161 11.043554-16.163082 24.134919 55.94913h13.457046l-28.961903-66.480731 24.573736-35.324745h-13.164501l-31.082851 44.393623v-84.252808h-11.262962v141.810933h11.262962zm57.484989-62.019428h11.189826v101.805476h-11.189826zm-97.636718-39.859185h11.262963v20.478113h-11.262963zm97.636718 0h11.189826v20.478113h-11.189826zm32.545573 129.962882a18.064621 18.064621 0 0 0 3.510533 11.994324c2.925445 2.998581 6.582251 4.534439 10.239057 4.168758a49.220608 49.220608 0 0 0 9.068879-1.31645v-13.676454a10.970418 10.970418 0 0 1 -5.265801.877634c-1.755267.292544-3.58367-.365681-4.973256-1.901539a13.895862 13.895862 0 0 1 -1.31645-7.313612v-69.771857h11.555507v-13.164501h-11.555507v-28.011134h-11.262962v28.011134h-9.507696v13.164501h9.507696zm-130.182291-90.103697h11.262963v101.805476h-11.262963zm-57.558125 99.903937c5.046392 4.388167 10.824145 6.582251 16.675035 6.362842 5.046392.146272 10.019648-1.462722 14.627224-4.607575a31.302259 31.302259 0 0 0 10.092784-13.457046 67.285229 67.285229 0 0 0 4.388167-21.502019h-11.262962c-1.901539 16.38249-7.679292 24.573736-17.33326 24.573736a13.895862 13.895862 0 0 1 -10.16592-4.680711 30.497761 30.497761 0 0 1 -6.874795-13.164502 82.058725 82.058725 0 0 1 -2.340356-20.843793c-.073136-7.386748.731361-14.773496 2.340356-21.794564a32.179892 32.179892 0 0 1 6.655386-14.627223 13.968999 13.968999 0 0 1 10.165921-4.753848c4.168759-.365681 8.337517 1.755267 11.48237 5.85089a30.058945 30.058945 0 0 1 5.265801 16.309354h11.336098a79.718369 79.718369 0 0 0 -1.462722-12.286868 31.887348 31.887348 0 0 0 -13.164501-19.96616 23.403558 23.403558 0 0 0 -26.548411-.292545 30.71717 30.71717 0 0 0 -10.165921 11.409235 61.434339 61.434339 0 0 0 -6.362842 17.625804c-1.535858 7.313612-2.340356 14.992904-2.194084 22.672197-.219408 10.019648 1.097042 19.96616 3.803079 29.181311 2.486628 7.313612 6.289706 13.603318 11.043553 17.991485zm-40.590545-13.018229a15.797402 15.797402 0 0 1 -11.921187 4.388167c-5.046392.511953-9.946512-1.755267-13.895863-6.289706a18.869118 18.869118 0 0 1 -2.194083-5.265801 48.635519 48.635519 0 0 1 -1.170178-8.191245h-12.213732a42.930901 42.930901 0 0 0 7.459884 26.182731 25.231961 25.231961 0 0 0 20.843794 8.556925 28.961903 28.961903 0 0 0 15.212312-3.876214 27.206636 27.206636 0 0 0 10.239057-11.409234 39.054687 39.054687 0 0 0 3.364261-17.113852 30.570897 30.570897 0 0 0 -4.607575-17.918349 29.254447 29.254447 0 0 0 -15.285449-10.385329l-10.531601-4.095622a20.185569 20.185569 0 0 1 -10.16592-5.85089 12.067459 12.067459 0 0 1 -2.998581-8.483789 15.139176 15.139176 0 0 1 4.022486-11.336099 14.407815 14.407815 0 0 1 11.043554-3.94935c9.068879 0 13.74959 5.412073 14.115271 16.163082h11.921187a43.15031 43.15031 0 0 0 -3.071717-16.894443 22.525924 22.525924 0 0 0 -8.776334-10.677874 25.231961 25.231961 0 0 0 -14.042135-3.656806 24.5006 24.5006 0 0 0 -19.600479 8.48379 32.764981 32.764981 0 0 0 -7.386748 22.452788 44.613032 44.613032 0 0 0 1.097042 10.531601c.804497 3.144853 2.194084 5.997162 3.94935 8.191246a21.575155 21.575155 0 0 0 6.582251 5.850889c3.510534 1.974675 7.094203 3.656806 10.751009 4.973256l10.239057 3.656806a18.137757 18.137757 0 0 1 8.337517 5.338937c1.682131 2.26722 2.6329 5.485209 2.559764 8.776334a16.38249 16.38249 0 0 1 -3.876214 11.848051z" fill="#fff"/></svg>