<svg height="200" viewBox="0 0 1024 1024" width="200" xmlns="http://www.w3.org/2000/svg"><path d="m426.666667 682.666667v-298.666667l256 149.845333zm587.093333-355.541334s-10.026667-71.04-40.704-102.357333c-38.954667-41.088-82.602667-41.258667-102.613333-43.648-143.274667-10.453333-358.229334-10.453333-358.229334-10.453333h-.426666s-214.954667 0-358.229334 10.453333c-20.053333 2.389333-63.658667 2.56-102.656 43.648-30.677333 31.317333-40.661333 102.4-40.661333 102.4s-10.24 83.370667-10.24 166.784v78.293333c0 83.456 10.24 166.912 10.24 166.912s9.984 71.04 40.661333 102.357334c38.997333 41.088 90.154667 39.765333 112.938667 44.074666 81.92 7.978667 348.16 10.410667 348.16 10.410667s215.168-.341333 358.442667-10.752c20.053333-2.432 63.658667-2.602667 102.613333-43.690667 30.72-31.317333 40.704-102.4 40.704-102.4s10.24-83.413333 10.24-166.869333v-78.250667c0-83.456-10.24-166.912-10.24-166.912z" fill="#f00"/></svg>